<mxfile host="65bd71144e">
    <diagram id="NzMm7scRhCIVbDAwb-Gw" name="Page-1">
        <mxGraphModel dx="957" dy="563" grid="1" gridSize="10" guides="1" tooltips="1" connect="1" arrows="1" fold="1" page="1" pageScale="1" pageWidth="850" pageHeight="1100" math="0" shadow="0">
            <root>
                <mxCell id="0"/>
                <mxCell id="1" parent="0"/>
                <mxCell id="3" value="users" style="text;html=1;strokeColor=none;fillColor=none;align=center;verticalAlign=middle;whiteSpace=wrap;rounded=0;" parent="1" vertex="1">
                    <mxGeometry x="110" y="140" width="60" height="30" as="geometry"/>
                </mxCell>
                <mxCell id="5" value="" style="rounded=0;whiteSpace=wrap;html=1;" parent="1" vertex="1">
                    <mxGeometry x="110" y="170" width="260" height="40" as="geometry"/>
                </mxCell>
                <mxCell id="12" value="ID (Bigint)" style="rounded=0;whiteSpace=wrap;html=1;strokeColor=none;" parent="1" vertex="1">
                    <mxGeometry x="110" y="170" width="170" height="40" as="geometry"/>
                </mxCell>
                <mxCell id="13" value="PK / Inc" style="rounded=0;whiteSpace=wrap;html=1;strokeColor=none;" parent="1" vertex="1">
                    <mxGeometry x="280" y="170" width="90" height="40" as="geometry"/>
                </mxCell>
                <mxCell id="14" value="" style="rounded=0;whiteSpace=wrap;html=1;" parent="1" vertex="1">
                    <mxGeometry x="110" y="210" width="260" height="40" as="geometry"/>
                </mxCell>
                <mxCell id="15" value="email (varChar)" style="rounded=0;whiteSpace=wrap;html=1;strokeColor=none;" parent="1" vertex="1">
                    <mxGeometry x="110" y="210" width="170" height="40" as="geometry"/>
                </mxCell>
                <mxCell id="16" value="U / NN" style="rounded=0;whiteSpace=wrap;html=1;strokeColor=none;" parent="1" vertex="1">
                    <mxGeometry x="280" y="210" width="90" height="40" as="geometry"/>
                </mxCell>
                <mxCell id="17" value="" style="rounded=0;whiteSpace=wrap;html=1;" parent="1" vertex="1">
                    <mxGeometry x="110" y="250" width="260" height="40" as="geometry"/>
                </mxCell>
                <mxCell id="18" value="password (varChar)" style="rounded=0;whiteSpace=wrap;html=1;strokeColor=none;" parent="1" vertex="1">
                    <mxGeometry x="110" y="250" width="170" height="40" as="geometry"/>
                </mxCell>
                <mxCell id="19" value="NN" style="rounded=0;whiteSpace=wrap;html=1;strokeColor=none;" parent="1" vertex="1">
                    <mxGeometry x="280" y="250" width="90" height="40" as="geometry"/>
                </mxCell>
                <mxCell id="20" value="" style="image;html=1;image=img/lib/clip_art/general/Keys_128x128.png" parent="1" vertex="1">
                    <mxGeometry x="110" y="170" width="30" height="40" as="geometry"/>
                </mxCell>
                <mxCell id="21" value="registry" style="text;html=1;strokeColor=none;fillColor=none;align=center;verticalAlign=middle;whiteSpace=wrap;rounded=0;" parent="1" vertex="1">
                    <mxGeometry x="500" y="140" width="60" height="30" as="geometry"/>
                </mxCell>
                <mxCell id="22" value="" style="rounded=0;whiteSpace=wrap;html=1;" parent="1" vertex="1">
                    <mxGeometry x="500" y="170" width="260" height="40" as="geometry"/>
                </mxCell>
                <mxCell id="23" value="ID (Bigint)" style="rounded=0;whiteSpace=wrap;html=1;strokeColor=none;" parent="1" vertex="1">
                    <mxGeometry x="500" y="170" width="170" height="40" as="geometry"/>
                </mxCell>
                <mxCell id="24" value="PK / Inc" style="rounded=0;whiteSpace=wrap;html=1;strokeColor=none;" parent="1" vertex="1">
                    <mxGeometry x="670" y="170" width="90" height="40" as="geometry"/>
                </mxCell>
                <mxCell id="25" value="" style="rounded=0;whiteSpace=wrap;html=1;" parent="1" vertex="1">
                    <mxGeometry x="500" y="211" width="260" height="40" as="geometry"/>
                </mxCell>
                <mxCell id="26" value="userID (BigInt)" style="rounded=0;whiteSpace=wrap;html=1;strokeColor=none;" parent="1" vertex="1">
                    <mxGeometry x="500" y="211" width="170" height="40" as="geometry"/>
                </mxCell>
                <mxCell id="27" value="FK" style="rounded=0;whiteSpace=wrap;html=1;strokeColor=none;" parent="1" vertex="1">
                    <mxGeometry x="670" y="211" width="90" height="40" as="geometry"/>
                </mxCell>
                <mxCell id="28" value="" style="rounded=0;whiteSpace=wrap;html=1;" parent="1" vertex="1">
                    <mxGeometry x="500" y="291" width="260" height="40" as="geometry"/>
                </mxCell>
                <mxCell id="29" value="name (varChar)" style="rounded=0;whiteSpace=wrap;html=1;strokeColor=none;" parent="1" vertex="1">
                    <mxGeometry x="500" y="291" width="170" height="40" as="geometry"/>
                </mxCell>
                <mxCell id="30" value="NN" style="rounded=0;whiteSpace=wrap;html=1;strokeColor=none;" parent="1" vertex="1">
                    <mxGeometry x="670" y="291" width="90" height="40" as="geometry"/>
                </mxCell>
                <mxCell id="31" value="" style="image;html=1;image=img/lib/clip_art/general/Keys_128x128.png" parent="1" vertex="1">
                    <mxGeometry x="500" y="170" width="30" height="40" as="geometry"/>
                </mxCell>
                <mxCell id="33" style="edgeStyle=none;html=1;entryX=1;entryY=0.5;entryDx=0;entryDy=0;" parent="1" source="32" target="13" edge="1">
                    <mxGeometry relative="1" as="geometry"/>
                </mxCell>
                <mxCell id="118" value="1:n" style="edgeLabel;html=1;align=center;verticalAlign=middle;resizable=0;points=[];" parent="33" vertex="1" connectable="0">
                    <mxGeometry x="0.2641" relative="1" as="geometry">
                        <mxPoint as="offset"/>
                    </mxGeometry>
                </mxCell>
                <mxCell id="32" value="" style="image;html=1;image=img/lib/clip_art/general/Lock_128x128.png" parent="1" vertex="1">
                    <mxGeometry x="500" y="216" width="40" height="30" as="geometry"/>
                </mxCell>
                <mxCell id="34" value="postCode" style="text;html=1;strokeColor=none;fillColor=none;align=center;verticalAlign=middle;whiteSpace=wrap;rounded=0;" parent="1" vertex="1">
                    <mxGeometry x="850" y="140" width="60" height="30" as="geometry"/>
                </mxCell>
                <mxCell id="35" value="" style="rounded=0;whiteSpace=wrap;html=1;" parent="1" vertex="1">
                    <mxGeometry x="850" y="170" width="260" height="40" as="geometry"/>
                </mxCell>
                <mxCell id="36" value="ID (Bigint)" style="rounded=0;whiteSpace=wrap;html=1;strokeColor=none;" parent="1" vertex="1">
                    <mxGeometry x="850" y="170" width="170" height="40" as="geometry"/>
                </mxCell>
                <mxCell id="37" value="PK / Inc" style="rounded=0;whiteSpace=wrap;html=1;strokeColor=none;" parent="1" vertex="1">
                    <mxGeometry x="1020" y="170" width="90" height="40" as="geometry"/>
                </mxCell>
                <mxCell id="41" value="" style="rounded=0;whiteSpace=wrap;html=1;" parent="1" vertex="1">
                    <mxGeometry x="850" y="212" width="260" height="40" as="geometry"/>
                </mxCell>
                <mxCell id="42" value="postcode (int)" style="rounded=0;whiteSpace=wrap;html=1;strokeColor=none;" parent="1" vertex="1">
                    <mxGeometry x="850" y="212" width="170" height="40" as="geometry"/>
                </mxCell>
                <mxCell id="43" value="NN" style="rounded=0;whiteSpace=wrap;html=1;strokeColor=none;" parent="1" vertex="1">
                    <mxGeometry x="1020" y="212" width="90" height="40" as="geometry"/>
                </mxCell>
                <mxCell id="44" value="" style="image;html=1;image=img/lib/clip_art/general/Keys_128x128.png" parent="1" vertex="1">
                    <mxGeometry x="850" y="170" width="30" height="40" as="geometry"/>
                </mxCell>
                <mxCell id="46" style="edgeStyle=none;html=1;exitX=1;exitY=0.5;exitDx=0;exitDy=0;entryX=0;entryY=0.5;entryDx=0;entryDy=0;" parent="1" source="123" target="44" edge="1">
                    <mxGeometry relative="1" as="geometry">
                        <mxPoint x="790" y="260" as="sourcePoint"/>
                        <mxPoint x="790" y="260" as="targetPoint"/>
                    </mxGeometry>
                </mxCell>
                <mxCell id="47" value="" style="rounded=0;whiteSpace=wrap;html=1;" parent="1" vertex="1">
                    <mxGeometry x="500" y="332" width="260" height="40" as="geometry"/>
                </mxCell>
                <mxCell id="48" value="telefon (varChar)" style="rounded=0;whiteSpace=wrap;html=1;strokeColor=none;" parent="1" vertex="1">
                    <mxGeometry x="500" y="332" width="170" height="40" as="geometry"/>
                </mxCell>
                <mxCell id="49" value="NN" style="rounded=0;whiteSpace=wrap;html=1;strokeColor=none;" parent="1" vertex="1">
                    <mxGeometry x="670" y="332" width="90" height="40" as="geometry"/>
                </mxCell>
                <mxCell id="50" value="" style="rounded=0;whiteSpace=wrap;html=1;" parent="1" vertex="1">
                    <mxGeometry x="500" y="373" width="260" height="40" as="geometry"/>
                </mxCell>
                <mxCell id="51" value="terms (bool)" style="rounded=0;whiteSpace=wrap;html=1;strokeColor=none;" parent="1" vertex="1">
                    <mxGeometry x="500" y="373" width="170" height="40" as="geometry"/>
                </mxCell>
                <mxCell id="52" value="NN" style="rounded=0;whiteSpace=wrap;html=1;strokeColor=none;" parent="1" vertex="1">
                    <mxGeometry x="670" y="373" width="90" height="40" as="geometry"/>
                </mxCell>
                <mxCell id="53" value="" style="rounded=0;whiteSpace=wrap;html=1;" parent="1" vertex="1">
                    <mxGeometry x="500" y="414" width="260" height="40" as="geometry"/>
                </mxCell>
                <mxCell id="54" value="mailConfirmed (bool)" style="rounded=0;whiteSpace=wrap;html=1;strokeColor=none;" parent="1" vertex="1">
                    <mxGeometry x="500" y="414" width="170" height="40" as="geometry"/>
                </mxCell>
                <mxCell id="55" value="" style="rounded=0;whiteSpace=wrap;html=1;strokeColor=none;" parent="1" vertex="1">
                    <mxGeometry x="670" y="414" width="90" height="40" as="geometry"/>
                </mxCell>
                <mxCell id="59" value="" style="rounded=0;whiteSpace=wrap;html=1;" parent="1" vertex="1">
                    <mxGeometry x="110" y="332" width="260" height="40" as="geometry"/>
                </mxCell>
                <mxCell id="60" value="createtAt (ts)" style="rounded=0;whiteSpace=wrap;html=1;strokeColor=none;" parent="1" vertex="1">
                    <mxGeometry x="110" y="332" width="170" height="40" as="geometry"/>
                </mxCell>
                <mxCell id="61" value="auto" style="rounded=0;whiteSpace=wrap;html=1;strokeColor=none;" parent="1" vertex="1">
                    <mxGeometry x="280" y="332" width="90" height="40" as="geometry"/>
                </mxCell>
                <mxCell id="62" value="" style="rounded=0;whiteSpace=wrap;html=1;" parent="1" vertex="1">
                    <mxGeometry x="110" y="373" width="260" height="40" as="geometry"/>
                </mxCell>
                <mxCell id="63" value="endedAt (ts)" style="rounded=0;whiteSpace=wrap;html=1;strokeColor=none;" parent="1" vertex="1">
                    <mxGeometry x="110" y="373" width="170" height="40" as="geometry"/>
                </mxCell>
                <mxCell id="64" value="" style="rounded=0;whiteSpace=wrap;html=1;strokeColor=none;" parent="1" vertex="1">
                    <mxGeometry x="280" y="373" width="90" height="40" as="geometry"/>
                </mxCell>
                <mxCell id="65" value="" style="rounded=0;whiteSpace=wrap;html=1;" parent="1" vertex="1">
                    <mxGeometry x="110" y="291" width="260" height="40" as="geometry"/>
                </mxCell>
                <mxCell id="66" value="mailToken (varChar)" style="rounded=0;whiteSpace=wrap;html=1;strokeColor=none;" parent="1" vertex="1">
                    <mxGeometry x="110" y="291" width="170" height="40" as="geometry"/>
                </mxCell>
                <mxCell id="67" value="NN" style="rounded=0;whiteSpace=wrap;html=1;strokeColor=none;" parent="1" vertex="1">
                    <mxGeometry x="280" y="291" width="90" height="40" as="geometry"/>
                </mxCell>
                <mxCell id="68" value="usersPermission" style="text;html=1;strokeColor=none;fillColor=none;align=center;verticalAlign=middle;whiteSpace=wrap;rounded=0;" parent="1" vertex="1">
                    <mxGeometry x="500" y="510" width="100" height="30" as="geometry"/>
                </mxCell>
                <mxCell id="69" value="" style="rounded=0;whiteSpace=wrap;html=1;" parent="1" vertex="1">
                    <mxGeometry x="500" y="540" width="260" height="40" as="geometry"/>
                </mxCell>
                <mxCell id="70" value="ID (Bigint)" style="rounded=0;whiteSpace=wrap;html=1;strokeColor=none;" parent="1" vertex="1">
                    <mxGeometry x="500" y="540" width="170" height="40" as="geometry"/>
                </mxCell>
                <mxCell id="71" value="PK / Inc" style="rounded=0;whiteSpace=wrap;html=1;strokeColor=none;" parent="1" vertex="1">
                    <mxGeometry x="670" y="540" width="90" height="40" as="geometry"/>
                </mxCell>
                <mxCell id="72" value="" style="rounded=0;whiteSpace=wrap;html=1;" parent="1" vertex="1">
                    <mxGeometry x="500" y="622" width="260" height="40" as="geometry"/>
                </mxCell>
                <mxCell id="73" value="permission (int(1))" style="rounded=0;whiteSpace=wrap;html=1;strokeColor=none;" parent="1" vertex="1">
                    <mxGeometry x="500" y="622" width="170" height="40" as="geometry"/>
                </mxCell>
                <mxCell id="74" value="NN" style="rounded=0;whiteSpace=wrap;html=1;strokeColor=none;" parent="1" vertex="1">
                    <mxGeometry x="670" y="622" width="90" height="40" as="geometry"/>
                </mxCell>
                <mxCell id="78" value="" style="image;html=1;image=img/lib/clip_art/general/Keys_128x128.png" parent="1" vertex="1">
                    <mxGeometry x="500" y="540" width="30" height="40" as="geometry"/>
                </mxCell>
                <mxCell id="89" value="" style="rounded=0;whiteSpace=wrap;html=1;" parent="1" vertex="1">
                    <mxGeometry x="500" y="581" width="260" height="40" as="geometry"/>
                </mxCell>
                <mxCell id="90" value="userID (BigInt)" style="rounded=0;whiteSpace=wrap;html=1;strokeColor=none;" parent="1" vertex="1">
                    <mxGeometry x="500" y="581" width="170" height="40" as="geometry"/>
                </mxCell>
                <mxCell id="91" value="FK" style="rounded=0;whiteSpace=wrap;html=1;strokeColor=none;" parent="1" vertex="1">
                    <mxGeometry x="670" y="581" width="90" height="40" as="geometry"/>
                </mxCell>
                <mxCell id="100" style="edgeStyle=none;html=1;entryX=1;entryY=0.5;entryDx=0;entryDy=0;exitX=0;exitY=0.5;exitDx=0;exitDy=0;" parent="1" source="92" target="13" edge="1">
                    <mxGeometry relative="1" as="geometry"/>
                </mxCell>
                <mxCell id="117" value="1:n" style="edgeLabel;html=1;align=center;verticalAlign=middle;resizable=0;points=[];" parent="100" vertex="1" connectable="0">
                    <mxGeometry x="-0.0647" relative="1" as="geometry">
                        <mxPoint as="offset"/>
                    </mxGeometry>
                </mxCell>
                <mxCell id="92" value="" style="image;html=1;image=img/lib/clip_art/general/Lock_128x128.png" parent="1" vertex="1">
                    <mxGeometry x="500" y="586" width="40" height="30" as="geometry"/>
                </mxCell>
                <mxCell id="93" value="" style="rounded=0;whiteSpace=wrap;html=1;" parent="1" vertex="1">
                    <mxGeometry x="500" y="662" width="260" height="40" as="geometry"/>
                </mxCell>
                <mxCell id="94" value="createtAt (ts)" style="rounded=0;whiteSpace=wrap;html=1;strokeColor=none;" parent="1" vertex="1">
                    <mxGeometry x="500" y="662" width="170" height="40" as="geometry"/>
                </mxCell>
                <mxCell id="95" value="auto" style="rounded=0;whiteSpace=wrap;html=1;strokeColor=none;" parent="1" vertex="1">
                    <mxGeometry x="670" y="662" width="90" height="40" as="geometry"/>
                </mxCell>
                <mxCell id="96" value="" style="rounded=0;whiteSpace=wrap;html=1;" parent="1" vertex="1">
                    <mxGeometry x="500" y="703" width="260" height="40" as="geometry"/>
                </mxCell>
                <mxCell id="97" value="updatedAt (ts)" style="rounded=0;whiteSpace=wrap;html=1;strokeColor=none;" parent="1" vertex="1">
                    <mxGeometry x="500" y="703" width="170" height="40" as="geometry"/>
                </mxCell>
                <mxCell id="98" value="" style="rounded=0;whiteSpace=wrap;html=1;strokeColor=none;" parent="1" vertex="1">
                    <mxGeometry x="670" y="703" width="90" height="40" as="geometry"/>
                </mxCell>
                <mxCell id="101" value="place" style="text;html=1;strokeColor=none;fillColor=none;align=center;verticalAlign=middle;whiteSpace=wrap;rounded=0;" parent="1" vertex="1">
                    <mxGeometry x="1231" y="137" width="60" height="30" as="geometry"/>
                </mxCell>
                <mxCell id="102" value="" style="rounded=0;whiteSpace=wrap;html=1;" parent="1" vertex="1">
                    <mxGeometry x="1231" y="167" width="260" height="40" as="geometry"/>
                </mxCell>
                <mxCell id="103" value="ID (Bigint)" style="rounded=0;whiteSpace=wrap;html=1;strokeColor=none;" parent="1" vertex="1">
                    <mxGeometry x="1231" y="167" width="170" height="40" as="geometry"/>
                </mxCell>
                <mxCell id="104" value="PK / Inc" style="rounded=0;whiteSpace=wrap;html=1;strokeColor=none;" parent="1" vertex="1">
                    <mxGeometry x="1401" y="167" width="90" height="40" as="geometry"/>
                </mxCell>
                <mxCell id="105" value="" style="rounded=0;whiteSpace=wrap;html=1;" parent="1" vertex="1">
                    <mxGeometry x="1231" y="207" width="260" height="40" as="geometry"/>
                </mxCell>
                <mxCell id="106" value="postID (Bigint)" style="rounded=0;whiteSpace=wrap;html=1;strokeColor=none;" parent="1" vertex="1">
                    <mxGeometry x="1231" y="207" width="170" height="40" as="geometry"/>
                </mxCell>
                <mxCell id="107" value="FK" style="rounded=0;whiteSpace=wrap;html=1;strokeColor=none;" parent="1" vertex="1">
                    <mxGeometry x="1401" y="207" width="90" height="40" as="geometry"/>
                </mxCell>
                <mxCell id="111" value="" style="image;html=1;image=img/lib/clip_art/general/Keys_128x128.png" parent="1" vertex="1">
                    <mxGeometry x="1231" y="167" width="30" height="40" as="geometry"/>
                </mxCell>
                <mxCell id="116" style="edgeStyle=none;html=1;entryX=1;entryY=0.5;entryDx=0;entryDy=0;" parent="1" source="112" target="37" edge="1">
                    <mxGeometry relative="1" as="geometry"/>
                </mxCell>
                <mxCell id="120" value="1:n" style="edgeLabel;html=1;align=center;verticalAlign=middle;resizable=0;points=[];" parent="116" vertex="1" connectable="0">
                    <mxGeometry x="0.3431" relative="1" as="geometry">
                        <mxPoint as="offset"/>
                    </mxGeometry>
                </mxCell>
                <mxCell id="112" value="" style="image;html=1;image=img/lib/clip_art/general/Lock_128x128.png" parent="1" vertex="1">
                    <mxGeometry x="1231" y="212" width="40" height="30" as="geometry"/>
                </mxCell>
                <mxCell id="113" value="" style="rounded=0;whiteSpace=wrap;html=1;" parent="1" vertex="1">
                    <mxGeometry x="1231" y="248" width="260" height="40" as="geometry"/>
                </mxCell>
                <mxCell id="114" value="place (varChar)" style="rounded=0;whiteSpace=wrap;html=1;strokeColor=none;" parent="1" vertex="1">
                    <mxGeometry x="1231" y="248" width="170" height="40" as="geometry"/>
                </mxCell>
                <mxCell id="115" value="NN" style="rounded=0;whiteSpace=wrap;html=1;strokeColor=none;" parent="1" vertex="1">
                    <mxGeometry x="1401" y="248" width="90" height="40" as="geometry"/>
                </mxCell>
                <mxCell id="121" value="" style="rounded=0;whiteSpace=wrap;html=1;" vertex="1" parent="1">
                    <mxGeometry x="500" y="251" width="260" height="40" as="geometry"/>
                </mxCell>
                <mxCell id="122" value="postID (BigInt)" style="rounded=0;whiteSpace=wrap;html=1;strokeColor=none;" vertex="1" parent="1">
                    <mxGeometry x="500" y="251" width="170" height="40" as="geometry"/>
                </mxCell>
                <mxCell id="123" value="FK" style="rounded=0;whiteSpace=wrap;html=1;strokeColor=none;" vertex="1" parent="1">
                    <mxGeometry x="670" y="251" width="90" height="40" as="geometry"/>
                </mxCell>
                <mxCell id="124" value="" style="image;html=1;image=img/lib/clip_art/general/Lock_128x128.png" vertex="1" parent="1">
                    <mxGeometry x="500" y="256" width="40" height="30" as="geometry"/>
                </mxCell>
            </root>
        </mxGraphModel>
    </diagram>
</mxfile>